<svg xmlns="http://www.w3.org/2000/svg" 
	xmlns:xlink="http://www.w3.org/1999/xlink" x="0px" y="0px" viewBox="0 0 343 407" style="enable-background:new 0 0 343 407;" xml:space="preserve">
	<style type="text/css">
	.st0{fill:url(#SVGID_1_);}
	.st1{fill:#FFCB9C;}
	.st2{fill:url(#SVGID_2_);}
	.st3{fill:#191919;}
	.st4{fill:#CE3E3E;}
	.st5{fill:#FF7D7D;}
	.st6{fill:none;stroke:#1D1D1B;stroke-width:2;}
	.st7{fill:#FF6252;}
	.st8{fill:#AFAFAF;}
	.st9{fill:#D8D8D8;}
	.st10{fill:#FFFFFF;}
	.st11{opacity:0.57;fill:#F5F5F5;enable-background:new    ;}
	.st12{fill:url(#SVGID_3_);}
	.st13{fill:url(#SVGID_4_);}
	.st14{fill:url(#SVGID_5_);}
	.st15{fill:#FFFFFF;stroke:#141414;stroke-width:3;}
	.st16{fill:#FFFFFF;stroke:#141414;stroke-linecap:round;stroke-linejoin:round;}
	.st17{fill:none;stroke:#141414;stroke-linecap:round;stroke-linejoin:round;}
	.st18{fill:url(#SVGID_6_);}
	.st19{fill:url(#SVGID_7_);}
	.st20{fill:url(#SVGID_8_);}
	</style>
	<g>

		<linearGradient id="SVGID_1_" gradientUnits="userSpaceOnUse" x1="72.2745" y1="303.3389" x2="72.2745" y2="304.3389" gradientTransform="matrix(319.2614 0 0 -306.8975 -22891.0527 93500.6562)">
			<stop offset="0" style="stop-color:#76AADB"/>
			<stop offset="1" style="stop-color:#4A72B2"/>
		</linearGradient>
		<path class="st0" d="M59.3,352.9c0,0-80-55.4,0-130.9s172.9-119.6,231-122.1s67.1,136.8,32.3,228.4S169,435.4,59.3,352.9z"/>
		<path class="st1" d="M237.3,261.8c0,0,37.5,45.7-9,75.2l-7.3-15c0,0,16-16.7,4.2-37.1L237.3,261.8L237.3,261.8z M71.1,261.8
		c0,0-37.5,45.7,9,75.2l7.3-15c0,0-16-16.7-4.2-37.1C83.2,284.9,71.1,261.8,71.1,261.8z"/>

		<linearGradient id="SVGID_2_" gradientUnits="userSpaceOnUse" x1="71.618" y1="304.2121" x2="72.618" y2="304.2121" gradientTransform="matrix(188.5 0 0 -146.0464 -13442.5713 44724.0977)">
			<stop offset="0" style="stop-color:#2ACAFF"/>
			<stop offset="1" style="stop-color:#2ADFC3"/>
		</linearGradient>
		<path class="st2" d="M245.9,271.5c-19.1-38-54.8-43.7-54.8-43.7v0.2l-11.4-2.8c-24-5.1-48.9-4.2-72.5,2.6c0,0-34.9,9.3-49.9,49
		l21.9,12c-1.8,18.9-1.4,42.5,3.4,71.8c11.2-3.6,23.9,1.1,35.6,1.9c13.9,0.9,26.3-0.6,39.9,1.5c24.8,3.6,50.1,2,75.1,4
		c0.3-22.3-0.7-53.8-6.8-83.2L245.9,271.5L245.9,271.5z"/>
		<g transform="translate(116 126)">
			<path class="st1" d="M80.4,51.8c-0.6,12.9-3.8,24.6-23.2,33.4c0,0-10,10-7.1,23.8s-34.7,12.7-29-6.3s-3.7-40.9-10.5-53.3
			s-4-38.3,11.7-46.8c6.2-3.3,21.5-1.8,31.5,3.1C70.6,14,81.2,33.1,80.4,51.8z"/>
			<path class="st1" d="M14.5,38.3c-2.9-2.2-6.6-3-10.2-2.2c-5.6,1.5-6.6,22.1,6.6,25.6s8.4-9.3,8.4-9.3S14.5,38.3,14.5,38.3z"/>
			<path class="st3" d="M81.1,49.6c-0.5,0.1-1.1,0.1-1.6,0.1c-1,0-2.1-0.1-3.1-0.5c-4.4,2.2-11.9,4.6-19.3,0.8
			c-11.5-6-21.7-6.9-27.1-4.2c-9.2,4.5-19.8,2.1-23-12.2c0,0-1.3,11.3,5.7,17.3s7.3,15.3,6.3,23.1s-6.6,16.4,0.5,26.2
			s18.6,0,27.2,2.3s27.7,4.7,31.7-11s-1.2-21.7,0-28.2C79.6,57.7,81.8,54.4,81.1,49.6L81.1,49.6z"/>
			<path class="st4" d="M54,57.3c-1.6-1.3-3.5-2.3-5.5-2.9c-2.7-0.5-5.5,0-6.6,3.3s1.7,6.4,5.4,9.2c2.2,1.6,10,4.5,14.8,3.2
			s7.3-2.6,8.8-5.4c1.2-2.8,0.1-6-2.5-7.5c-1.9-0.9-4.2-0.9-6.1,0.2C59.8,59,56.5,59,54,57.3z"/>
			<path class="st5" d="M43.6,63.7c2.8-0.9,5.8-0.8,8.6,0.1c3.6,1,6.6,3.4,8.5,6.5c-3.9,0.3-7.7-0.5-11.2-2.1
			C47.1,67.2,45.1,65.6,43.6,63.7z"/>
			<path class="st3" d="M46.9,31.6c0,2.2-0.9,4.1-2.1,4.1s-2.1-1.8-2.1-4.1s1-4.1,2.1-4.1S46.9,29.4,46.9,31.6z M69.9,34.3
			c0,2.2-0.9,4.1-2.1,4.1s-2.1-1.8-2.1-4.1s0.9-4.1,2.1-4.1S69.9,32,69.9,34.3z"/>
			<circle class="st6" cx="71.4" cy="31.7" r="13"/>
			<path class="st7" d="M58.8,20.6l6.9,27.3l-14.1-1.6L58.8,20.6z"/>
			<path class="st6" d="M55.7,29.5c0,7.2-5.8,13-13,13s-13-5.8-13-13s5.8-13,13-13S55.7,22.4,55.7,29.5z M61.6,23h-7.8 M30.1,26
			L6,33.6"/>
			<path class="st3" d="M19,53.4c0,3.5-2.8,6.3-6.3,6.3s-6.3-2.8-6.3-6.3s2.8-6.3,6.3-6.3S19,49.9,19,53.4z"/>
			<path class="st3" d="M21.2,60.8c0,3-2.4,5.5-5.5,5.5s-5.5-2.4-5.5-5.5c0-3,2.4-5.5,5.5-5.5C18.7,55.4,21.2,57.8,21.2,60.8
			C21.2,60.8,21.2,60.8,21.2,60.8z"/>
			<path class="st3" d="M23.1,69.5c0,4.1-3.3,7.4-7.4,7.4s-7.4-3.3-7.4-7.4c0-4.1,3.3-7.4,7.4-7.4h0C19.8,62.1,23.1,65.4,23.1,69.5z" />
			<path class="st3" d="M23.1,81.4c0,4.1-3.3,7.4-7.3,7.4s-7.4-3.3-7.4-7.3c0-4.1,3.3-7.4,7.3-7.4C19.8,74.1,23.1,77.4,23.1,81.4
			C23.1,81.4,23.1,81.4,23.1,81.4z"/>
			<path class="st3" d="M26.4,94.5c0,4.1-3.3,7.4-7.4,7.4c-4.1,0-7.4-3.3-7.4-7.4s3.3-7.4,7.4-7.4c0,0,0,0,0,0
			C23.1,87.2,26.4,90.5,26.4,94.5z"/>
			<path class="st3" d="M34.9,102.6c0,4.1-3.3,7.4-7.4,7.4s-7.4-3.3-7.4-7.4c0-4.1,3.3-7.4,7.4-7.4h0C31.6,95.2,34.9,98.5,34.9,102.6
			C34.9,102.6,34.9,102.6,34.9,102.6z"/>
			<path class="st3" d="M48.9,101.9c0,4.1-3.3,7.4-7.3,7.4s-7.4-3.3-7.4-7.3c0-4.1,3.3-7.4,7.3-7.4C45.6,94.5,48.9,97.8,48.9,101.9
			C48.9,101.8,48.9,101.9,48.9,101.9z"/>
			<path class="st3" d="M62.8,104.5c0,4.1-3.3,7.4-7.4,7.4s-7.4-3.3-7.4-7.4c0-4.1,3.3-7.4,7.4-7.4C59.5,97.2,62.8,100.5,62.8,104.5z
			"/>
			<path class="st3" d="M76.8,100.2c0.1,4.1-3.2,7.4-7.3,7.5c-4.1,0.1-7.4-3.2-7.5-7.3c-0.1-4.1,3.2-7.4,7.3-7.5c0,0,0,0,0,0h0.1
			C73.4,92.9,76.7,96.2,76.8,100.2z"/>
			<circle class="st3" cx="76.2" cy="89.8" r="7.4"/>
			<path class="st3" d="M87.8,76.8c0,4.1-3.3,7.4-7.4,7.4s-7.4-3.3-7.4-7.4c0-4.1,3.3-7.4,7.4-7.4c0,0,0,0,0,0
			C84.5,69.5,87.8,72.8,87.8,76.8L87.8,76.8z"/>
			<path class="st3" d="M86.8,64.2c0,4.1-3.3,7.4-7.4,7.4c-4.1,0-7.4-3.3-7.4-7.4c0-4.1,3.3-7.4,7.4-7.4
			C83.5,56.9,86.8,60.2,86.8,64.2z"/>
			<path class="st3" d="M87.2,55.3c0.3,4.1-2.8,7.6-6.8,7.9s-7.6-2.8-7.9-6.8s2.8-7.6,6.8-7.9c0,0,0,0,0,0h0.5
			C83.8,48.3,87.1,51.4,87.2,55.3z"/>
		</g>
		<g transform="translate(75 242)">
			<path class="st8" d="M5.7,107.4H160c1.9,0,3.5,1.6,3.5,3.5v0.5c0,1.9-1.6,3.5-3.5,3.5H5.7c-1.9,0-3.5-1.6-3.5-3.5v-0.5
			C2.2,108.9,3.8,107.4,5.7,107.4z"/>
			<path class="st9" d="M11.5,0.3h142.9c6.3,0,11.4,5.1,11.4,11.4v88.5c0,6.3-5.1,11.4-11.4,11.4H11.5c-6.3,0-11.4-5.1-11.4-11.4
			V11.6C0.1,5.4,5.2,0.3,11.5,0.3z"/>
			<path class="st10" d="M93.6,55.9c0,5.9-4.8,10.8-10.7,10.8c-5.9,0-10.8-4.8-10.8-10.7s4.8-10.8,10.7-10.8c0,0,0,0,0,0
			C88.7,45.2,93.5,50,93.6,55.9C93.5,55.9,93.5,55.9,93.6,55.9L93.6,55.9z"/>
			<path class="st11" d="M3.2,3.4l160.4,104c1.1-1.6,1.8-3.4,2.1-5.3V10.4c-0.2-2.3-1.1-4.5-2.5-6.3c-1.7-2-4.1-3.3-6.7-3.7
			c-0.8,0-1.6-0.1-2.4-0.1H10.6c-1.9,0-3.8,0.6-5.4,1.6C4.5,2.4,3.9,2.8,3.2,3.4z"/>
		</g>
		<path class="st3" d="M226.2,379.7c-2,9-4.9,17.8-8.7,26.3c0,0-37.2,5.2-88.5-13.9c0,0-23.9-10.4-27.2-12.4H226.2z"/>

		<linearGradient id="SVGID_3_" gradientUnits="userSpaceOnUse" x1="71.4425" y1="314.1318" x2="72.4425" y2="314.1318" gradientTransform="matrix(129.15 0 0 -9.782 -9125.0195 3457.4434)">
			<stop offset="0" style="stop-color:#2ACAFF"/>
			<stop offset="1" style="stop-color:#2ADFC3"/>
		</linearGradient>
		<path class="st12" d="M230.9,379.7l-0.7,5.2c-0.2,1.6-1.7,2.8-3.3,2.6c0,0,0,0,0,0h-0.1c-8.9-1.6-35.5-5.3-61.2-0.8
		c-31.5,5.5-47.8,0.8-47.8,0.8s-11.4-5.4-16-7.9L230.9,379.7L230.9,379.7z"/>

		<linearGradient id="SVGID_4_" gradientUnits="userSpaceOnUse" x1="71.6727" y1="312.5909" x2="72.6727" y2="312.5909" gradientTransform="matrix(220.01 0 0 -11.44 -15703.9697 3938.6199)">
			<stop offset="0" style="stop-color:#FFFFFF"/>
			<stop offset="1" style="stop-color:#F7F7F8"/>
		</linearGradient>
		<path class="st13" d="M64.8,356.9h220c0,6.3-5.1,11.4-11.4,11.4H81.7C75.9,364.7,70.3,360.9,64.8,356.9z"/>

		<linearGradient id="SVGID_5_" gradientUnits="userSpaceOnUse" x1="71.5932" y1="312.5989" x2="72.5932" y2="312.5989" gradientTransform="matrix(176.98 0 0 -11.43 -12588.8301 3947.0198)">
			<stop offset="0" style="stop-color:#FFFFFF"/>
			<stop offset="1" style="stop-color:#F7F7F8"/>
		</linearGradient>
		<path class="st14" d="M81.7,368.3h177c0,6.3-5.1,11.4-11.4,11.4H101.6C94.8,376.2,88.2,372.4,81.7,368.3z"/>
		<g transform="translate(230 121)">
			<circle class="st15" cx="43.9" cy="43.5" r="42.9"/>
			<path class="st16" d="M43.8,16.1v27.4h21.4"/>
			<path class="st17" d="M43.8,5.4V9 M56.8,7.6l-1.2,3.5 M68.2,14.2L65.9,17 M76.8,24.2l-3.2,1.9 M81.3,36.6l-3.6,0.7 M81.5,49.7
			l-3.6-0.6 M77.1,62.2l-3.2-1.8 M68.8,72.3l-2.4-2.8 M57.5,79.1l-1.3-3.4 M44.6,81.6L44.5,78 M31.5,79.6l1.2-3.5 M20,73.3l2.3-2.9
			 M11.3,63.4l3.1-1.9 M6.5,51.1l3.6-0.7 M6.1,38l3.6,0.5 M10.2,25.5l3.2,1.7 M18.4,15.1l2.5,2.7 M29.5,8.1l1.4,3.4"/>
		</g>

		<linearGradient id="SVGID_6_" gradientUnits="userSpaceOnUse" x1="71.5136" y1="304.4185" x2="72.5136" y2="304.4185" gradientTransform="matrix(148.0388 0 0 -113.2249 -10586.7939 34524.375)">
			<stop offset="0" style="stop-color:#2ACAFF"/>
			<stop offset="1" style="stop-color:#2ADFC3"/>
		</linearGradient>
		<path class="st18" d="M68.8,14.6c-5,0.7-10-1.5-12.9-5.6c-2.6-3.6-8-8.2-16.3-3.6c-12.6,6.9-14.6,14.2-27.2,16.7
		S-3.3,34.3,3.8,41.6s8.4,15.4,4.7,21.9S2.8,86.7,15.7,88s20.5-1.2,24.1,9s18.2,22.8,35.9,12.2s35.4-0.4,42.1-1.7
		c7.5-1.3,12.5-8.5,11.2-16c0,0,0,0,0,0v-0.1c0-0.3-0.1-0.6-0.2-0.9c-1.8-9.2,1.2-18.4,8.1-22.8c0,0,8.3-2.4,10.3-12.8
		s0.2-21.9-15.4-27.2s-11.3-17.3-25-24.3S83.3,1.3,79.5,5.9C76.4,9.5,74,13.9,68.8,14.6z"/>

		<linearGradient id="SVGID_7_" gradientUnits="userSpaceOnUse" x1="69.3496" y1="309.2226" x2="70.3496" y2="309.2226" gradientTransform="matrix(27.1657 0 0 -18.1736 -1804.6084 5744.9668)">
			<stop offset="0" style="stop-color:#2ACAFF"/>
			<stop offset="1" style="stop-color:#2ADFC3"/>
		</linearGradient>
		<path class="st19" d="M92.1,117.9c-1.2,3.7-4.4,6.2-8.3,6.5c-6.7,0.7-6.1,9.9,2.2,8.6s10.5,1,13.2,1.3s6.8-0.5,7.2-5.4
		c0.3-4.9-3.8-4.6-6.7-4.7s-0.2-5.4-1.9-7c-1.6-1.4-4-1.3-5.4,0.3C92.4,117.6,92.3,117.8,92.1,117.9L92.1,117.9z"/>

		<linearGradient id="SVGID_8_" gradientUnits="userSpaceOnUse" x1="64.0895" y1="316.9615" x2="65.0895" y2="316.9615" gradientTransform="matrix(9.0971 0 0 -7.7257 -482.181 2601.3672)">
			<stop offset="0" style="stop-color:#2ACAFF"/>
			<stop offset="1" style="stop-color:#2ADFC3"/>
		</linearGradient>
		<path class="st20" d="M106.8,149.4c-1.7-1.2-4.1-0.8-5.3,1c0,0,0,0,0,0c-0.5,0.7-0.7,1.5-0.7,2.4v0.4c0.2,4.7,4.1,2.9,6.1,3.1
		c2,0.3,3-1.9,3-3.8s-1.6-1.6-2.8-2.9C107.1,149.6,106.8,149.4,106.8,149.4z"/>
		<g className="man-laptop-svg__cogwheel">
			<path class="st10" d="M76.5,80.9l4.2-0.2l-0.3-6.8L76,74.1c-0.5-1.5-1.2-3-2.1-4.3l2.9-3L72,62l-3.1,3.2c-1.4-0.8-2.9-1.3-4.5-1.7
			v-4.1h-6.8v4.4c-1.9,0.5-3.7,1.3-5.2,2.5l-3.2-3l-4.6,5l3.4,3.2c-1,1.9-1.6,4-1.7,6.1L42.2,78l0.8,6.8l4.4-0.6
			c0.6,1.5,1.4,2.9,2.5,4.1l-2.6,3.3l5.3,4.2l2.6-3.4c1.5,0.7,3,1.1,4.6,1.3l0.4,4.2l6.7-0.6L66.5,93c1.5-0.5,2.9-1.3,4.2-2.3
			l3.2,2.8l4.5-5.1l-3.3-3C75.8,84,76.3,82.5,76.5,80.9z M61.3,84.2c-3.5,0-6.3-2.8-6.3-6.3s2.8-6.3,6.3-6.3c0,0,0,0,0,0
			c3.5,0,6.3,2.8,6.3,6.3C67.6,81.4,64.8,84.2,61.3,84.2z M115.2,62.4l4.2-0.2l-0.3-6.8l-4.4,0.2c-0.5-1.5-1.2-3-2.1-4.3l2.9-3.1
			l-4.9-4.7l-3,3.2c-1.4-0.8-2.9-1.4-4.5-1.7V41h-6.8v4.4c-1.9,0.5-3.7,1.3-5.2,2.5l-3.2-3l-4.6,4.9l3.4,3.1c-1,1.9-1.5,4-1.7,6.1
			l-4.2,0.5l0.9,6.7l4.4-0.6c0.6,1.5,1.4,2.9,2.4,4.1l-2.7,3.3l5.3,4.2l2.6-3.4c1.4,0.7,3,1.1,4.6,1.3l0.4,4.2l6.7-0.7l-0.4-4.4
			c1.5-0.5,2.9-1.3,4.2-2.3l3.2,2.9l4.5-5.1l-3.3-2.9C114.4,65.6,114.9,64,115.2,62.4z M100,65.7c-3.5,0-6.3-2.8-6.3-6.3
			c0-3.5,2.8-6.3,6.3-6.3c3.5,0,6.3,2.8,6.3,6.3c0,0,0,0,0,0C106.3,62.9,103.5,65.7,100,65.7C100,65.7,100,65.7,100,65.7z"/>
			<path class="st10" d="M80.2,42.5l4.2-0.6l-0.9-6.8l-4.4,0.6c-0.6-1.5-1.5-2.9-2.5-4.1l2.6-3.3l-5.3-4.2l-2.7,3.5
			c-1.5-0.6-3-1.1-4.6-1.2l-0.4-4.2L59.4,23l0.4,4.4c-1.8,0.7-3.5,1.7-5,3l-3.5-2.7l-4.1,5.4l3.8,2.8c-0.8,2-1.2,4.1-1.1,6.3
			l-4.2,0.9l1.6,6.6l4.3-1c0.7,1.4,1.7,2.7,2.8,3.8l-2.3,3.5l5.6,3.8l2.4-3.7c1.5,0.5,3.1,0.8,4.7,0.8l0.8,4.2l6.6-1.3l-0.8-4.3
			c1.5-0.7,2.8-1.6,4-2.7l3.4,2.5l3.9-5.5l-3.6-2.6C79.9,45.7,80.2,44.1,80.2,42.5z M65.4,47.3c-3.5,0.4-6.6-2.2-6.9-5.6
			c-0.4-3.5,2.2-6.6,5.6-6.9c3.5-0.4,6.6,2.2,6.9,5.6c0,0,0,0,0,0C71.4,43.8,68.9,46.9,65.4,47.3C65.5,47.3,65.4,47.3,65.4,47.3z"/>
		</g>
	</g>
	<g className="man-laptop-svg__apple">
		<path d="M162.2,298.4c0-2,1.6-3,1.7-3c-0.9-1.4-2.4-1.5-2.9-1.6c-1.2-0.1-2.4,0.7-3,0.7c-0.6,0-1.6-0.7-2.6-0.7
		c-1.3,0-2.6,0.8-3.3,2c-1.4,2.4-0.4,6,1,8c0.7,1,1.5,2,2.5,2c1,0,1.4-0.6,2.6-0.6c1.2,0,1.6,0.6,2.6,0.6c1.1,0,1.8-1,2.4-1.9
		c0.8-1.1,1.1-2.2,1.1-2.3C164.3,301.6,162.3,300.8,162.2,298.4z M160.2,292.5c0.6-0.7,0.9-1.6,0.8-2.5c-0.8,0-1.8,0.5-2.3,1.2
		c-0.5,0.6-1,1.5-0.8,2.5C158.8,293.7,159.7,293.2,160.2,292.5z"/>
	</g>
</svg>
