<svg xmlns="http://www.w3.org/2000/svg" viewBox="0 0 289 285"><defs><linearGradient id="a" x1="0%" y1="49.994%" y2="49.994%"><stop offset="0%" stop-color="#2ACAFF"/><stop offset="100%" stop-color="#2ADFC3"/></linearGradient><linearGradient id="b" x1="0%" x2="99.999%" y1="49.998%" y2="49.998%"><stop offset="0%" stop-color="#76AADB"/><stop offset="100%" stop-color="#4A72B2"/></linearGradient><linearGradient id="c" x1="-.408%" x2="99.647%" y1="49.758%" y2="49.758%"><stop offset="0%" stop-color="#2ACAFF"/><stop offset="100%" stop-color="#2ADFC3"/></linearGradient><linearGradient id="d" x1="-.934%" x2="99.097%" y1="48.023%" y2="48.023%"><stop offset="0%" stop-color="#76AADB"/><stop offset="100%" stop-color="#4A72B2"/></linearGradient><linearGradient id="e" x1="-.903%" x2="99.129%" y1="48.023%" y2="48.023%"><stop offset="0%" stop-color="#76AADB"/><stop offset="100%" stop-color="#4A72B2"/></linearGradient><linearGradient id="f" x1="-1.485%" x2="98.568%" y1="48.305%" y2="48.305%"><stop offset="0%" stop-color="#76AADB"/><stop offset="100%" stop-color="#4A72B2"/></linearGradient><linearGradient id="g" x1="49.758%" x2="49.758%" y1=".285%" y2="100.34%"><stop offset="0%" stop-color="#2ACAFF"/><stop offset="100%" stop-color="#2ADFC3"/></linearGradient><linearGradient id="h" x1="46.893%" x2="46.893%" y1=".747%" y2="100.778%"><stop offset="0%" stop-color="#76AADB"/><stop offset="100%" stop-color="#4A72B2"/></linearGradient><linearGradient id="i" x1="47.175%" x2="47.175%" y1=".747%" y2="100.778%"><stop offset="0%" stop-color="#76AADB"/><stop offset="100%" stop-color="#4A72B2"/></linearGradient><linearGradient id="j" x1="47.175%" x2="47.175%" y1=".716%" y2="100.747%"><stop offset="0%" stop-color="#76AADB"/><stop offset="100%" stop-color="#4A72B2"/></linearGradient><linearGradient id="k" x1="46.893%" x2="46.893%" y1="1.167%" y2="101.22%"><stop offset="0%" stop-color="#76AADB"/><stop offset="100%" stop-color="#4A72B2"/></linearGradient><linearGradient id="l" x1="-.261%" x2="99.779%" y1="49.283%" y2="49.283%"><stop offset="0%" stop-color="#2ACAFF"/><stop offset="100%" stop-color="#2ADFC3"/></linearGradient><linearGradient id="m" x1="-.622%" x2="99.401%" y1="41.545%" y2="41.545%"><stop offset="0%" stop-color="#76AADB"/><stop offset="100%" stop-color="#4A72B2"/></linearGradient><linearGradient id="n" x1="-1.406%" x2="98.71%" y1="45.929%" y2="45.929%"><stop offset="0%" stop-color="#76AADB"/><stop offset="100%" stop-color="#4A72B2"/></linearGradient><linearGradient id="o" x1="-1.429%" x2="98.687%" y1="46.347%" y2="46.347%"><stop offset="0%" stop-color="#76AADB"/><stop offset="100%" stop-color="#4A72B2"/></linearGradient><linearGradient id="p" x1="-.668%" x2="99.355%" y1="41.545%" y2="41.545%"><stop offset="0%" stop-color="#76AADB"/><stop offset="100%" stop-color="#4A72B2"/></linearGradient><linearGradient id="q" x1="-1.098%" x2="98.941%" y1="41.754%" y2="41.754%"><stop offset="0%" stop-color="#76AADB"/><stop offset="100%" stop-color="#4A72B2"/></linearGradient><linearGradient id="r" x1="-.047%" x2="100.117%" y1="49.825%" y2="49.825%"><stop offset="0%" stop-color="#FFF"/><stop offset="100%" stop-color="#F7F7F8"/></linearGradient></defs><g fill="none" fill-rule="evenodd"><path fill="url(#a)" fill-rule="nonzero" d="M20.66 196.33s-56.85-55.57 18.06-105.47 155.73-72.45 202.84-66.55c47.11 5.9 35.24 119.48-5.42 188.46C195.48 281.75 97.68 278 20.66 196.33z"/><path fill="url(#b)" fill-rule="nonzero" d="M259.94 78.06s65.39 45.25 0 107S118.6 282.68 71.15 284.8C23.7 286.92 16.3 173 44.75 98.13 73.2 23.26 170.29 10.56 259.94 78.06z"/><g fill-rule="nonzero"><path fill="#C4C4C4" d="M24.05 91.19a3.5 3.5 0 0 1-3.49-3.5v-9.35a3.52 3.52 0 0 1 3.49-3.5 3.52 3.52 0 0 1 3.5 3.5v9.35a3.51 3.51 0 0 1-3.5 3.5zM24.05 72.58a3.51 3.51 0 0 1-3.49-3.5v-9.34a3.51 3.51 0 0 1 3.49-3.5 3.52 3.52 0 0 1 3.5 3.5v9.35a3.53 3.53 0 0 1-3.5 3.49zM24.05 52.58a3.5 3.5 0 0 1-3.49-3.48V46a3.51 3.51 0 0 1 3.49-3.49 3.52 3.52 0 0 1 3.5 3.49v3.1a3.51 3.51 0 0 1-3.5 3.48zM122.24 86.48a3.48 3.48 0 0 1-3.48-3.48V65.69a3.49 3.49 0 0 1 3.48-3.49 3.5 3.5 0 0 1 3.49 3.49V83a3.49 3.49 0 0 1-3.49 3.48z"/><path fill="#000" d="M42.46 13.74h60.9c10.778.006 19.514 8.742 19.52 19.52v166.13c0 10.786-8.744 19.53-19.53 19.53H42.46c-10.78 0-19.52-8.74-19.52-19.52V33.26c0-10.78 8.74-19.52 19.52-19.52z"/><path fill="#9B9B9A" d="M107.61 219.83H38.15c-8.918-.022-16.139-7.252-16.15-16.17V29c.017-8.933 7.257-16.169 16.19-16.18h69.47c8.911.044 16.118 7.269 16.14 16.18v174.66c-.022 8.93-7.26 16.159-16.19 16.17zM38.19 14.64c-7.92.022-14.334 6.44-14.35 14.36v174.66c.017 7.917 6.433 14.329 14.35 14.34h69.47c7.91-.022 14.318-6.43 14.34-14.34V29c-.011-7.94-6.45-14.37-14.39-14.37H38.19v.01z"/><path fill="#858585" d="M107 16.17c7.463 0 13.514 6.047 13.52 13.51V203c-.017 7.455-6.065 13.49-13.52 13.49H38.89c-7.451-.005-13.493-6.039-13.51-13.49V29.68c.006-7.46 6.05-13.504 13.51-13.51H107zm0-2.43H38.89a15.94 15.94 0 0 0-16 15.91V203c.039 8.81 7.19 15.93 16 15.93H107c8.784-.022 15.895-7.146 15.9-15.93V29.68c.006-8.79-7.11-15.923-15.9-15.94z"/><path fill="#EBEBEB" d="M22.01 34.52h3.32v2.18h-3.32zM120.42 34.52h3.38v2.18h-3.38zM22.01 197.82h3.4V200h-3.4zM120.37 197.82h3.4V200h-3.4z"/><path fill="#FFF" d="M117.2 29.7V29a1.46 1.46 0 0 0-.11-.68 3.06 3.06 0 0 1-.15-.73c-.06-.23-.14-.51-.23-.75a7.64 7.64 0 0 0-.29-.8c-.13-.3-.27-.59-.41-.88a9.32 9.32 0 0 0-.57-1 14.63 14.63 0 0 0-.92-1.16 10.82 10.82 0 0 0-5.82-3.35 8.14 8.14 0 0 0-1.39-.18 5 5 0 0 0-.77 0h-8.23a.67.67 0 0 0-.67.65v.14a1.65 1.65 0 0 1-.07.58c-.07.2 0 .39-.1.59a3.13 3.13 0 0 1-.16.52 1.36 1.36 0 0 1-.21.52 4.39 4.39 0 0 1-.27.47c-.09.16-.19.313-.3.46-.11.14-.24.28-.36.42a3 3 0 0 1-.42.38 5.2 5.2 0 0 1-.44.38 4.4 4.4 0 0 1-.56.31 5.55 5.55 0 0 1-.6.29c-.23.08-.47.16-.71.22a5.4 5.4 0 0 1-.9.11H53.25a5.09 5.09 0 0 1-2.8-1A5.73 5.73 0 0 1 49 23.2a4.94 4.94 0 0 1-.43-1 4.12 4.12 0 0 1-.23-.78 5.54 5.54 0 0 1-.12-.69v-.6a.63.63 0 0 0-.63-.58H38.5a2.56 2.56 0 0 0-.91.11 7.08 7.08 0 0 0-.8.16l-.75.2-.67.25-.61.26-.6.28-.52.33a3.58 3.58 0 0 0-.52.34l-.47.34-.45.39-.41.38-.39.41c-.133.14-.253.28-.36.42-.13.14-.23.29-.34.43a5.15 5.15 0 0 0-.32.45c-.09.15-.19.32-.29.47a5.22 5.22 0 0 0-.26.47c-.08.17-.17.33-.24.5a4.46 4.46 0 0 0-.22.5c0 .17-.14.35-.19.52l-.17.54a2.69 2.69 0 0 1-.14.54c0 .18-.08.37-.11.57a5.07 5.07 0 0 0-.08.58V202.2c-.01.268.01.536.06.8a3.6 3.6 0 0 0 .14.84 5.4 5.4 0 0 1 .23.9 11.14 11.14 0 0 0 .77 1.94c.2.39.41.77.64 1.14.302.485.636.95 1 1.39a11.79 11.79 0 0 0 6.72 3.88c.541.103 1.09.167 1.64.19h66.3a9.34 9.34 0 0 0 1.18-.07 5.25 5.25 0 0 0 1-.17l.92-.23.82-.31.75-.32.69-.36c.22-.12.43-.26.64-.4l.6-.42a11.35 11.35 0 0 0 1.05-.91l.48-.5c.15-.17.3-.34.44-.52l.4-.53.37-.55c.11-.18.23-.38.33-.57l.29-.6c.101-.197.188-.4.26-.61.093-.207.173-.417.24-.63.07-.2.13-.44.2-.66a6.58 6.58 0 0 0 .15-.67 5.5 5.5 0 0 0 .11-.69V30.24a1.41 1.41 0 0 0 .1-.54z"/></g><g fill-rule="nonzero"><g transform="translate(36 36)"><rect width="73.56" height="37.12" x=".547" y=".39" fill="url(#c)" rx="3.42" transform="rotate(-.07 37.327 18.95)"/><path fill="url(#d)" d="M.453.287h32.13v3.54H.453z" transform="rotate(-.07 4112.573 -5725.02)"/><path fill="url(#e)" d="M.46 5.977h32.13v3.54H.46z" transform="rotate(-.07 4112.58 -5719.33)"/><path fill="url(#e)" d="M.476 11.677h32.13v3.54H.476z" transform="rotate(-.07 4112.597 -5713.63)"/><path fill="url(#e)" d="M.483 17.367h32.13v3.54H.483z" transform="rotate(-.07 4112.604 -5707.94)"/><path fill="url(#f)" d="M.5 23.055h18.85v3.54H.5z" transform="rotate(-.07 4105.98 -5702.252)"/><path fill="#FADD74" d="M51.6 8.75a4.3 4.3 0 1 1-4.3-4.29 4.28 4.28 0 0 1 4.3 4.29z"/><path fill="#E6332A" d="M61.32 8.74a4.3 4.3 0 1 1-8.6 0 4.3 4.3 0 0 1 8.6 0z"/><path fill="#FADD74" d="M71.05 8.72a4.3 4.3 0 1 1-4.3-4.29 4.31 4.31 0 0 1 4.3 4.29z"/><path fill="#34525C" d="M51.61 19.31A4.3 4.3 0 1 1 47.3 15a4.29 4.29 0 0 1 4.31 4.31z"/><path fill="#FADD74" d="M61.33 19.29a4.29 4.29 0 1 1-8.58 0 4.29 4.29 0 0 1 8.58 0z"/><path fill="#FFF" d="M71.06 19.29a4.3 4.3 0 1 1-8.6.02 4.3 4.3 0 0 1 8.6-.02z"/><g fill="#FADD74"><path d="M51.62 29.88a4.29 4.29 0 1 1-1.26-3.04 4.27 4.27 0 0 1 1.25 3.03l.01.01z"/></g><g fill="#34525C"><path d="M61.35 29.87a4.3 4.3 0 1 1-8.6 0 4.3 4.3 0 0 1 8.6 0z"/></g><path fill="#FFF" d="M71.07 29.85a4.31 4.31 0 1 1-4.32-4.29 4.29 4.29 0 0 1 4.32 4.29z"/></g><g transform="translate(36 79)"><rect width="37.12" height="73.56" x="18.78" y="-17.94" fill="url(#g)" rx="3.42" transform="rotate(-89.93 37.34 18.84)"/><path fill="url(#h)" d="M14.381-14.14h3.54v32.13h-3.54z" transform="rotate(-89.93 36.154 -13.096)"/><path fill="url(#i)" d="M14.371-8.443h3.54v32.13h-3.54z" transform="rotate(-89.93 36.144 -7.4)"/><path fill="url(#j)" d="M14.371-2.766h3.54v32.13h-3.54z" transform="rotate(-89.93 36.144 -1.722)"/><path fill="url(#j)" d="M14.351 2.931h3.54v32.13h-3.54z" transform="rotate(-89.93 36.124 3.975)"/><path fill="url(#k)" d="M20.989 15.278h3.54v18.85h-3.54z" transform="rotate(-89.93 42.763 9.681)"/><path fill="#FADD74" d="M23.06 8.61a4.29 4.29 0 1 0 4.33-4.25 4.3 4.3 0 0 0-4.33 4.25z"/><path fill="#E6332A" d="M13.35 8.59a4.29 4.29 0 1 0 4.35-4.23h-.06a4.29 4.29 0 0 0-4.29 4.23z"/><path fill="#FADD74" d="M3.62 8.53A4.3 4.3 0 1 0 8 4.36h-.12a4.29 4.29 0 0 0-4.26 4.17z"/><path fill="#34525C" d="M23.05 19.18a4.29 4.29 0 1 0 8.58 0 4.29 4.29 0 0 0-8.58 0z"/><path fill="#FADD74" d="M13.33 19.17a4.3 4.3 0 1 0 4.3-4.3 4.29 4.29 0 0 0-4.3 4.27v.03z"/><path fill="#FFF" d="M3.61 19.15a4.29 4.29 0 1 0 8.58 0 4.29 4.29 0 0 0-8.58 0z"/><g fill="#FADD74"><path d="M23 29.74a4.31 4.31 0 1 0 8.62.04 4.31 4.31 0 0 0-8.62-.04z"/></g><g fill="#34525C" transform="translate(13 25)"><circle cx="4.62" cy="4.74" r="4.29"/></g><path fill="#FFF" d="M3.6 29.73a4.29 4.29 0 1 0 8.58-.02 4.29 4.29 0 0 0-8.58.02z"/></g></g><g fill="#FFCB9C" fill-rule="nonzero"><path d="M163.92 191.37c-6-36.31-21.11-43.93-21.11-43.93l-8.72 10.2a6.3 6.3 0 0 1 .37 2.06c0 6.26-.31 13.59-5.84 17.45a21.61 21.61 0 0 1 4 10.18c.85 7.27-1.39 15.28-12.06 20.84-12.76 6.64-38.76 6.31-38.76 6.31l-8.71 9.31c57.98 21.53 95.28-5.56 90.83-32.42z"/><path d="M71 211.7s-22.23-6.28-24.24-6c-2.01.28-1.72 2.85 2.14 3.72a94.06 94.06 0 0 1 10.71 3.7s-14.61-2.77-15.67-1.88c-1.06.89-.75 2.78 1.92 3 2.67.22 13.24 2.78 13.24 2.78a96.83 96.83 0 0 0-11.68.28c-2.46.52.54 2.47 3 2.5 2.46.03 10.5 1.2 10.5 1.2s-7 1.59-7.9 2.63c-.9 1.04 0 1.66 1.13 1.62 1.13-.04 10.85-2.41 10.85-2.41s9 3 14-.61 3.81-7.09 3-7.65c-.81-.56-13.36-10.06-16-10.79-2.64-.73-3.33 1.3.45 3.52 3.78 2.22 5.78 3.76 4.55 4.39z"/></g><path fill="#000" fill-rule="nonzero" d="M239.4 203.35S221.69 119 174.47 115.1c-47.22-3.9-64.41 92.31-38.47 152.82 0 .08 50.93-19.58 103.4-64.57z"/><g fill-rule="nonzero" transform="translate(10 120)"><rect width="99.45" height="50.18" x="2.982" y="29.489" fill="url(#l)" rx="3.42" transform="rotate(-48.54 52.707 54.58)"/><path fill="url(#m)" d="M-4.721 15.527h43.44v4.79h-43.44z" transform="rotate(-48.54 48.306 -16)"/><path fill="url(#n)" d="M1.11 21.02h43.4v4.79H1.11z" transform="rotate(-48.65 54.084 -10.405)"/><path fill="url(#o)" d="M6.88 26.103h43.4v4.79H6.88z" transform="rotate(-48.65 59.853 -5.32)"/><path fill="url(#p)" d="M12.591 30.811h43.44v4.79h-43.44z" transform="rotate(-48.54 65.618 -.715)"/><path fill="url(#q)" d="M33.271 29.186h25.49v4.79h-25.49z" transform="rotate(-48.54 77.324 -2.34)"/><path fill="#FADD74" d="M29.61 59.93a5.81 5.81 0 1 0 7.691-8.71 5.81 5.81 0 0 0-7.691 8.71z"/><path fill="#E6332A" d="M20.9 69.78a5.81 5.81 0 1 0-.5-8.2 5.82 5.82 0 0 0 .5 8.2z"/><path fill="#FADD74" d="M12.22 79.63a5.81 5.81 0 1 0-.5-8.2 5.82 5.82 0 0 0 .5 8.2z"/><path fill="#34525C" d="M40.31 69.37a5.8 5.8 0 1 0-.49-8.19 5.79 5.79 0 0 0 .49 8.19z"/><path fill="#FADD74" d="M31.67 79.22a5.8 5.8 0 1 0 7.673-8.7 5.8 5.8 0 0 0-7.673 8.7z"/><path fill="#FFF" d="M22.91 89.07a5.81 5.81 0 1 0 7.701-8.701 5.81 5.81 0 0 0-7.701 8.701z"/><g fill="#FADD74"><path d="M51 78.83a5.81 5.81 0 1 0-.52-8.19 5.79 5.79 0 0 0 .52 8.19z"/></g><g fill="#34525C"><path d="M42.32 88.68a5.81 5.81 0 1 0-.51-8.19 5.8 5.8 0 0 0 .51 8.19z"/></g><path fill="#FFF" d="M33.61 98.53a5.81 5.81 0 1 0-.5-8.19 5.8 5.8 0 0 0 .5 8.19z"/></g><g fill="#FFCB9C" fill-rule="nonzero"><path d="M194.11 167.77s3.16 16.67-22 43.53c-18.58 19.88-62.78 6.82-81-52.24l12.69 1.22s15.59 20.84 28.62 26.9c10.86 5.06 18.64 2 23.88-3.14a22.33 22.33 0 0 0 6.5-17.88l31.31 1.61z"/><path d="M99.38 150s-8.55-21.4-10-22.87c-1.45-1.47-3.31.38-1.66 4a89.85 89.85 0 0 1 3.61 10.75s-6.66-13.21-8-13.55c-1.34-.34-2.68 1.11-1.23 3.36 1.45 2.25 5.83 12.23 5.83 12.23s-5.44-7.46-7.3-9.1c-1.86-1.64-1.64 1.93-.13 3.93 1.51 2 5.43 9 5.43 9s-5.49-4.54-6.94-4.68c-1.45-.14-1.31 1-.6 1.9.71.9 8.56 7.15 8.56 7.15s3.09 9 9 10.73c5.91 1.73 7.94-1.29 7.9-2.29-.04-1-.18-16.67-1.18-19.21-1-2.54-3.06-1.85-2.5 2.5s.46 6.72-.79 6.15z"/></g><g transform="translate(119)"><circle cx="42.99" cy="23.4" r="23.4" fill="#191919" fill-rule="nonzero"/><circle cx="30.96" cy="46.87" r="14.66" fill="#191919" fill-rule="nonzero"/><circle cx="62.673" cy="47.533" r="19.89" fill="#191919" fill-rule="nonzero" transform="rotate(-80.78 62.673 47.533)"/><g transform="translate(0 30)"><path fill="#FFCB9C" fill-rule="nonzero" d="M6.83 47c.5 11.76 3.43 22.38 21.07 30.33 0 0 9.06 9.09 6.41 21.58-2.65 12.49 31.52 11.55 26.39-5.67-5.13-17.22 3.37-37.11 9.55-48.41C76.43 33.53 73.88 10 59.64 2.3 54.08-.7 40.19.66 31.07 5.08 15.75 12.65 6.11 29.93 6.83 47z"/><path fill="#FFCB9C" fill-rule="nonzero" d="M66.73 34.7a11.32 11.32 0 0 1 9.24-2c5.12 1.39 6 20-6 23.3-12 3.3-7.66-8.47-7.66-8.47l4.42-12.83z"/><path fill="#191919" fill-rule="nonzero" d="M6.2 45c.46.066.925.103 1.39.11a8.43 8.43 0 0 0 2.78-.44c4 2 10.81 4.17 17.56.68 10.45-5.45 19.7-6.24 24.58-3.86 8.33 4.08 18.06 1.89 20.84-11.12 0 0 1.18 10.3-5.2 15.69C61.77 51.45 61.5 60 62.5 67c1 7 6 15-.42 23.83-6.42 8.83-16.89 0-24.76 2.11-7.87 2.11-25.2 4.33-28.82-10-3.62-14.33 1.07-19.67 0-25.6-.91-4.96-2.91-7.97-2.3-12.34z"/><path fill="url(#r)" fill-rule="nonzero" d="M15.86 3a13.15 13.15 0 0 1 5-2.63c2.45-.46 5 0 6 3s-1.57 5.81-4.92 8.34c-2 1.49-9.08 4-13.4 2.78-4.32-1.22-6.66-2.36-8-4.91-1.34-2.55.3-5.64 2.29-6.79a5.92 5.92 0 0 1 5.56.14 7 7 0 0 0 7.47.07z" transform="translate(15 49)"/><path fill="#191919" fill-rule="nonzero" d="M37.32 28.67c0 2 .86 3.7 1.92 3.7s1.92-1.66 1.92-3.7-.86-3.7-1.92-3.7-1.92 1.66-1.92 3.7zM16.44 31.13c0 2 .86 3.71 1.92 3.71s1.92-1.67 1.92-3.71-.86-3.7-1.92-3.7-1.92 1.57-1.92 3.7z"/><path stroke="#1D1D1B" stroke-width="2" d="M3.24 28.67A11.8 11.8 0 1 0 15 16.87a11.79 11.79 0 0 0-11.8 11.8h.04z"/><path fill="#FF6252" fill-rule="nonzero" d="M26.51 18.69l-6.23 24.73 12.83-1.4z"/><circle cx="41.15" cy="26.78" r="11.8" stroke="#1D1D1B" stroke-width="2"/><path stroke="#1D1D1B" stroke-width="2" d="M23.89 20.88h7.07M52.49 23.58l21.98 6.87"/><path fill="#191919" fill-rule="nonzero" d="M62.58 48.47a5.68 5.68 0 1 0 11.36-.02 5.68 5.68 0 0 0-11.36.02z"/><path fill="#191919" fill-rule="nonzero" d="M60.64 55.2a5 5 0 1 0 10 0 5 5 0 0 0-10 0z"/><path fill="#191919" fill-rule="nonzero" d="M58.91 63.08a6.7 6.7 0 1 0 6.71-6.68 6.68 6.68 0 0 0-6.71 6.68z"/><path fill="#191919" fill-rule="nonzero" d="M58.91 73.89a6.7 6.7 0 1 0 6.75-6.64h-.06a6.69 6.69 0 0 0-6.69 6.64z"/><path fill="#191919" fill-rule="nonzero" d="M55.88 85.78a6.7 6.7 0 1 0 13.4.02 6.7 6.7 0 0 0-13.4-.02z"/><path fill="#191919" fill-rule="nonzero" d="M48.2 93.13a6.7 6.7 0 1 0 6.7-6.69 6.69 6.69 0 0 0-6.7 6.69z"/><path fill="#191919" fill-rule="nonzero" d="M35.42 92.47a6.7 6.7 0 1 0 13.4.02 6.7 6.7 0 0 0-13.4-.02z"/><circle cx="29.52" cy="94.9" r="6.7" fill="#191919" fill-rule="nonzero"/><path fill="#191919" fill-rule="nonzero" d="M10.19 91a6.7 6.7 0 1 0 13.4.02 6.7 6.7 0 0 0-13.4-.02z"/><path fill="#191919" fill-rule="nonzero" d="M4 81.52a6.7 6.7 0 1 0 6.69-6.7A6.69 6.69 0 0 0 4 81.52z"/><circle cx="6.79" cy="69.72" r="6.7" fill="#191919" fill-rule="nonzero"/><path fill="#191919" fill-rule="nonzero" d="M1 58.29a6.7 6.7 0 1 0 6.69-6.7A6.68 6.68 0 0 0 1 58.26v.03z"/><path fill="#191919" fill-rule="nonzero" d="M.63 50.19A6.71 6.71 0 1 0 7.79 44h-.48a6.47 6.47 0 0 0-6.68 6.19z"/></g><path fill="#191919" fill-rule="nonzero" d="M71.72 65.42s3.6-27.91-21.56-26.78c-16.59.72-23 2.41-28.45-4.59-5.45-7-1.14-30.56 21.63-30.67 22.77-.11 22.42 26.39 22.42 26.39S87 38.3 73.47 62.63l-1.75 2.79z"/></g></g></svg>