<svg aria-hidden="true" style="position: absolute; width: 0; height: 0; overflow: hidden;" version="1.1" xmlns="http://www.w3.org/2000/svg" xmlns:xlink="http://www.w3.org/1999/xlink">
<defs>
<symbol id="icon-html" viewBox="0 0 28 32">
<title>html</title>
<path fill="#e44d26" style="fill: var(--color1, #e44d26)" d="M28.070 0l-2.557 28.648-11.495 3.186-11.464-3.183-2.554-28.651z"></path>
<path fill="#f16529" style="fill: var(--color2, #f16529)" d="M14.035 29.398l9.288-2.574 2.187-24.48h-11.475z"></path>
<path fill="#ebebeb" style="fill: var(--color3, #ebebeb)" d="M9.064 9.37h4.971v-3.512h-8.811l0.952 10.625h7.86v-3.514h-4.651l-0.32-3.599zM9.855 18.246h-3.528l0.494 5.513 7.214 1.999v-3.649l-3.93-1.055-0.25-2.807z"></path>
<path fill="#ffffff" d="M14.035 16.483h4.314l-0.407 4.57-3.907 1.047v3.649l7.203-1.996 0.053-0.595 0.825-9.249 0.087-0.946h-8.168v3.52zM14.035 9.361h8.477l0.070-0.789 0.154-1.774 0.084-0.94h-8.786v3.503z"></path>
</symbol>
<symbol id="icon-javascript" viewBox="0 0 28 32">
<title>javascript</title>
<path fill="#d4b830" style="fill: var(--color5, #d4b830)" d="M2.605 28.682l-2.605-28.682h28.070l-2.582 28.662-11.475 3.239-11.408-3.22zM23.377 27.119l2.167-24.567h-11.486l0.087 27.096 9.232-2.529zM12.991 6.153h-2.799l-0.034 14.703-5.418-1.488v3.368l8.233 2.22v-18.807l0.017 0.003z"></path>
<path fill="#ebebeb" style="fill: var(--color3, #ebebeb)" opacity="0.9108" d="M4.752 22.737v-3.368s3.458 0.974 5.418 1.479l0.022-14.672h2.793v18.807l-8.233-2.246z"></path>
<path fill="#fdd83c" style="fill: var(--color6, #fdd83c)" d="M14.058 2.54h11.486l-2.17 24.567-9.316 2.526v-27.093zM22.782 22.989l0.755-9.185-5.572 0.623v-4.904l5.956-0.022 0.219-3.349-8.982 0.042 0.121 12.197 5.429-0.929-0.076 2.714-5.474 1.457 0.053 3.326 7.571-1.971z"></path>
</symbol>
<symbol id="icon-css" viewBox="0 0 28 32">
<title>css</title>
<path fill="#264de4" style="fill: var(--color7, #264de4)" d="M14.018 31.834l-11.464-3.183-2.554-28.651h28.070l-2.557 28.648z"></path>
<path fill="#2965f1" style="fill: var(--color8, #2965f1)" d="M23.323 26.824l2.187-24.48h-11.475v27.054z"></path>
<path fill="#ebebeb" style="fill: var(--color3, #ebebeb)" d="M5.855 12.968l0.32 3.514h7.86v-3.514h-8.18zM5.224 5.858l0.32 3.512h8.491v-3.512h-8.811zM14.035 22.097l-3.93-1.044-0.25-2.807h-3.528l0.494 5.513 7.214 1.999v-3.66z"></path>
<path fill="#ffffff" d="M22.192 12.968l0.634-7.11h-8.792v3.512h4.94l-0.32 3.599h-4.62v3.514h4.314l-0.407 4.57-3.907 1.047v3.649l7.203-1.996 0.053-0.595 0.825-9.249 0.087-0.946z"></path>
</symbol>
<symbol id="icon-caret-down" viewBox="0 0 32 32">
<title>caret-down</title>
<path d="M31.4 7.6c-0.344-0.37-0.834-0.6-1.377-0.6-0.008 0-0.016 0-0.024 0h-27.999c-0.007-0-0.015-0-0.023-0-0.543 0-1.033 0.23-1.376 0.599l-0.001 0.001c-0.364 0.357-0.592 0.851-0.6 1.398l-0 0.002c-0 0.007-0 0.015-0 0.023 0 0.543 0.23 1.033 0.599 1.376l0.001 0.001 14 14c0.36 0.354 0.855 0.572 1.4 0.572s1.040-0.218 1.4-0.572l14-14c0.37-0.344 0.6-0.834 0.6-1.377 0-0.008-0-0.016-0-0.024v0.001c-0.008-0.549-0.236-1.043-0.6-1.4l-0-0z"></path>
</symbol>
<symbol id="icon-cover-icon-user" viewBox="0 0 32 32">
<title>cover-icon-user</title>
<path d="M16 32c-0.006 0-0.012 0-0.019 0-4.263 0-8.157-1.578-11.131-4.181l0.020 0.017v-2.792c0-6.147 4.983-11.13 11.13-11.13s11.13 4.983 11.13 11.13v0 2.792c-2.954 2.587-6.848 4.165-11.111 4.165-0.007 0-0.013 0-0.020 0h0.001zM16 12.8c-3.535 0-6.4-2.865-6.4-6.4s2.865-6.4 6.4-6.4c3.535 0 6.4 2.865 6.4 6.4v0c0 3.535-2.865 6.4-6.4 6.4v0z"></path>
</symbol>
<symbol id="icon-facebook" viewBox="0 0 32 32">
<title>facebook</title>
<path d="M23.975 0h-15.975c-4.418 0.021-7.993 3.604-8 8.024v16.001c0.035 4.399 3.599 7.955 7.998 7.975h16.002c4.418-0.021 7.993-3.604 8-8.024v-16.001c-0.035-4.408-3.613-7.969-8.024-7.975h-0.001zM20.283 16h-3.052v9.908h-3.766v-9.908h-2.031v-4.062h1.772v-1.723c-0.006-0.081-0.009-0.176-0.009-0.271 0-2.175 1.763-3.938 3.938-3.938 0.112 0 0.222 0.005 0.331 0.014l-0.014-0.001h3.114v3.372h-2.203c-0.357 0-0.837 0.234-0.837 1.022v1.526h3.126l-0.369 4.062z"></path>
</symbol>
<symbol id="icon-instagram" viewBox="0 0 32 32">
<title>instagram</title>
<path d="M18.831 13.932c-0.636-0.9-1.672-1.48-2.843-1.48s-2.207 0.58-2.836 1.469l-0.007 0.011c-0.413 0.575-0.661 1.292-0.665 2.067v0.001c0 1.937 1.57 3.508 3.508 3.508s3.508-1.57 3.508-3.508v0c-0.003-0.776-0.252-1.493-0.672-2.078l0.007 0.011z"></path>
<path d="M21.034 13.957c0.257 0.577 0.407 1.251 0.407 1.96 0 0.029-0 0.059-0.001 0.088l0-0.004c0 3.011-2.441 5.452-5.452 5.452s-5.452-2.441-5.452-5.452v0c-0.001-0.028-0.001-0.061-0.001-0.094 0-0.701 0.15-1.367 0.419-1.967l-0.012 0.030h-3.077v8.185c0.058 1.065 0.914 1.913 1.977 1.957l0.004 0h12.308c1.057-0.057 1.9-0.9 1.957-1.952l0-0.005v-8.197h-3.077zM23.188 8.32h-2.942v3.385h3.36v-3.409z"></path>
<path d="M23.951 0h-15.926c-4.429 0.007-8.018 3.596-8.025 8.024v16.001c0.035 4.408 3.613 7.969 8.024 7.975h16.001c4.412-0.035 7.975-3.62 7.975-8.037 0-0.004 0-0.009 0-0.013v0.001-15.926c-0.028-4.429-3.618-8.011-8.048-8.025h-0.001zM25.846 13.932v8.222c0 2.039-1.653 3.692-3.692 3.692v0h-12.308c-2.039 0-3.692-1.653-3.692-3.692v0-12.308c0-2.039 1.653-3.692 3.692-3.692v0h12.308c2.039 0 3.692 1.653 3.692 3.692v0 4.086z"></path>
</symbol>
<symbol id="icon-line-menu" viewBox="0 0 32 32">
<title>line-menu</title>
<path fill="#283593" style="fill: var(--color9, #283593)" d="M2.643 6.052c-0.021 0.001-0.045 0.001-0.070 0.001-1.422 0-2.574-1.152-2.574-2.574 0-0 0-0.001 0-0.001v0c-0.002-0.042-0.004-0.090-0.004-0.139 0-1.46 1.184-2.643 2.643-2.643 0.001 0 0.003 0 0.004 0h26.643c1.507 0.039 2.713 1.269 2.713 2.782 0 0 0 0.001 0 0.001v-0c0 0 0 0.001 0 0.001 0 1.46-1.184 2.643-2.643 2.643-0.024 0-0.049-0-0.073-0.001l0.004 0-26.643-0.070zM29.287 12.619c1.483 0.038 2.675 1.23 2.713 2.71l0 0.004c0 0 0 0.001 0 0.001 0 1.46-1.184 2.643-2.643 2.643-0.024 0-0.049-0-0.073-0.001l0.004 0h-26.643c-0.021 0.001-0.046 0.001-0.071 0.001-1.422 0-2.574-1.152-2.574-2.574 0-0.025 0-0.050 0.001-0.074l-0 0.004c-0.001-0.021-0.001-0.045-0.001-0.070 0-1.46 1.184-2.643 2.643-2.643 0 0 0.001 0 0.001 0h26.643zM29.287 24.626c0.021-0.001 0.045-0.001 0.070-0.001 1.455 0 2.636 1.176 2.643 2.63v0.001c0 0 0 0.001 0 0.001 0 1.512-1.206 2.743-2.709 2.782l-0.004 0h-26.643c-0.001 0-0.002 0-0.004 0-1.46 0-2.643-1.184-2.643-2.643 0-0.049 0.001-0.098 0.004-0.146l-0 0.007c-0-0.017-0.001-0.037-0.001-0.057 0-1.422 1.152-2.574 2.574-2.574 0.025 0 0.049 0 0.074 0.001l-0.004-0h26.643z"></path>
</symbol>
<symbol id="icon-linkedin" viewBox="0 0 32 32">
<title>linkedin</title>
<path d="M23.951 0h-15.926c-4.429 0.007-8.018 3.596-8.025 8.024v16.001c0.035 4.408 3.613 7.969 8.024 7.975h16.001c4.412-0.035 7.975-3.62 7.975-8.037 0-0.004 0-0.009 0-0.013v0.001-15.926c-0.028-4.429-3.618-8.011-8.048-8.025h-0.001zM10.658 25.846h-4.505v-13.157h4.505v13.157zM8.345 10.658c-1.292 0-2.338-1.047-2.338-2.338s1.047-2.338 2.338-2.338c1.291 0 2.338 1.047 2.338 2.338v0c-0.020 1.283-1.055 2.318-2.337 2.338l-0.002 0zM25.908 25.846h-3.828v-6.351c0-1.551-0.209-3.532-2.314-3.532s-2.462 1.674-2.462 3.422v6.462h-3.852v-13.157h3.545v1.772h0.111c0.759-1.105 2.016-1.82 3.439-1.82 0.154 0 0.306 0.008 0.456 0.025l-0.019-0.002c4.185 0 4.923 2.462 4.923 5.982v7.2z"></path>
</symbol>
<symbol id="icon-pinterest" viewBox="0 0 32 32">
<title>pinterest</title>
<path d="M23.975 0h-15.975c-4.418 0.021-7.993 3.604-8 8.024v16.001c0.035 4.399 3.599 7.955 7.998 7.975h16.002c4.418-0.021 7.993-3.604 8-8.024v-16.001c-0.035-4.408-3.613-7.969-8.024-7.975h-0.001zM17.6 20.443c-0.014 0-0.030 0-0.046 0-1.14 0-2.15-0.553-2.778-1.406l-0.007-0.010s-0.689 2.634-0.837 3.138c-0.525 1.446-1.251 2.694-2.158 3.787l0.017-0.021c-0.024 0.067-0.088 0.115-0.162 0.115-0.095 0-0.172-0.077-0.172-0.172 0-0.010 0.001-0.020 0.003-0.029l-0 0.001c-0.115-0.657-0.181-1.413-0.181-2.185s0.066-1.528 0.192-2.263l-0.011 0.079c0.222-0.948 1.526-6.252 1.526-6.252-0.241-0.517-0.382-1.123-0.382-1.762 0-0.012 0-0.024 0-0.037v0.002c0-1.711 1.009-2.978 2.277-2.978 0.013-0 0.029-0.001 0.045-0.001 0.863 0 1.563 0.7 1.563 1.563 0 0.057-0.003 0.112-0.009 0.168l0.001-0.007c-0.254 1.552-0.614 2.923-1.086 4.24l0.052-0.166c-0.035 0.132-0.055 0.283-0.055 0.438 0 0.986 0.799 1.785 1.785 1.785 0.058 0 0.116-0.003 0.173-0.008l-0.007 0.001c2.24 0 3.766-2.794 3.766-6.092 0-2.462-1.76-4.394-4.923-4.394-0.096-0.006-0.207-0.009-0.32-0.009-3.042 0-5.51 2.458-5.526 5.497v0.002c-0.003 0.051-0.004 0.111-0.004 0.171 0 0.792 0.28 1.519 0.747 2.087l-0.005-0.006c0.129 0.102 0.211 0.259 0.211 0.435 0 0.074-0.014 0.144-0.041 0.208l0.001-0.004c0 0.197-0.172 0.714-0.246 0.911-0.037 0.19-0.201 0.331-0.399 0.331-0.070 0-0.136-0.018-0.194-0.049l0.002 0.001c-1.481-0.731-2.483-2.231-2.483-3.964 0-0.151 0.008-0.301 0.023-0.448l-0.002 0.019c0-3.249 2.843-7.163 8.455-7.163 4.529 0 7.495 3.175 7.495 6.572 0.074 4.529-2.486 7.877-6.302 7.877z"></path>
</symbol>
<symbol id="icon-sign-out" viewBox="0 0 32 32">
<title>sign-out</title>
<path d="M13.067 26.827c-0.014-0.040-0.022-0.086-0.022-0.133s0.008-0.094 0.023-0.136l-0.001 0.003c0-0.080 0-0.147-0.147-0.187s-0.16-0.093-0.16-0.12c0-0.027-0.080 0-0.24 0h-6.64c-0.015 0-0.032 0-0.049 0-0.886 0-1.687-0.368-2.257-0.959l-0.001-0.001c-0.563-0.566-0.912-1.347-0.912-2.21 0-0.062 0.002-0.124 0.005-0.186l-0 0.008v-14.36c-0-0.015-0-0.032-0-0.049 0-0.886 0.368-1.687 0.959-2.257l0.001-0.001c0.566-0.561 1.345-0.907 2.205-0.907 0.017 0 0.034 0 0.051 0l-0.003-0h6.533c0.010 0.001 0.023 0.001 0.035 0.001 0.144 0 0.276-0.051 0.379-0.135l-0.001 0.001c0.109-0.102 0.182-0.241 0.2-0.397l0-0.003c0.031-0.137 0.054-0.302 0.066-0.469l0.001-0.011v-0.947c0.001-0.011 0.001-0.023 0.001-0.036 0-0.19-0.088-0.36-0.227-0.47l-0.001-0.001c-0.113-0.123-0.274-0.2-0.453-0.2-0 0-0 0-0 0h-6.533c-0.024-0-0.053-0.001-0.082-0.001-1.598 0-3.043 0.659-4.077 1.719l-0.001 0.001c-1.062 1.035-1.721 2.48-1.721 4.078 0 0.029 0 0.057 0.001 0.086l-0-0.004v14.36c-0.001 0.028-0.001 0.060-0.001 0.093 0 1.595 0.659 3.036 1.719 4.066l0.001 0.001c1.035 1.062 2.48 1.721 4.078 1.721 0.029 0 0.058-0 0.086-0.001l-0.004 0h6.533c0.010 0.001 0.023 0.001 0.035 0.001 0.144 0 0.276-0.051 0.379-0.135l-0.001 0.001c0.114-0.098 0.19-0.239 0.2-0.398l0-0.002c0.031-0.137 0.054-0.302 0.066-0.469l0.001-0.011v-0.533c0-0.213-0.027-0.36-0.027-0.413z"></path>
<path d="M31.613 14.813l-11.107-11.107c-0.239-0.228-0.563-0.368-0.92-0.368s-0.681 0.14-0.921 0.369l0.001-0.001c-0.246 0.225-0.4 0.548-0.4 0.906 0 0.005 0 0.010 0 0.014v-0.001 5.88h-9.12c-0.736 0-1.333 0.597-1.333 1.333v0 7.827c0 0.736 0.597 1.333 1.333 1.333v0h9.133v5.88c-0 0.004-0 0.009-0 0.014 0 0.359 0.154 0.681 0.399 0.905l0.001 0.001c0.238 0.224 0.56 0.362 0.913 0.362s0.675-0.138 0.914-0.363l-0.001 0.001 11.107-11.107c0.224-0.238 0.362-0.56 0.362-0.913s-0.138-0.675-0.363-0.914l0.001 0.001v-0.053z"></path>
</symbol>
<symbol id="icon-twitter" viewBox="0 0 32 32">
<title>twitter</title>
<path d="M23.951 0h-15.926c-4.429 0.007-8.018 3.596-8.025 8.024v16.001c0.035 4.408 3.613 7.969 8.024 7.975h16.001c4.412-0.035 7.975-3.62 7.975-8.037 0-0.004 0-0.009 0-0.013v0.001-15.926c-0.028-4.429-3.618-8.011-8.048-8.025h-0.001zM23.951 11.975v0.529c0 0 0 0.001 0 0.001 0 6.335-5.136 11.471-11.471 11.471-0.061 0-0.121-0-0.181-0.001l0.009 0c-0.013 0-0.028 0-0.043 0-2.319 0-4.478-0.679-6.292-1.849l0.046 0.028h0.96c0.021 0 0.047 0 0.072 0 1.894 0 3.636-0.649 5.016-1.737l-0.017 0.013c-1.775-0.022-3.275-1.172-3.819-2.765l-0.009-0.029c0.251 0.049 0.507 0.074 0.763 0.074 0.369 0.002 0.738-0.047 1.095-0.148-1.854-0.396-3.224-2.019-3.225-3.963v-0c0.556 0.316 1.182 0.49 1.822 0.505-1.108-0.721-1.83-1.953-1.83-3.354 0-0.737 0.2-1.427 0.548-2.019l-0.010 0.019c2.045 2.446 5.035 4.041 8.401 4.22l0.029 0.001c-0.071-0.258-0.111-0.555-0.111-0.861 0-0.022 0-0.044 0.001-0.065l-0 0.003c0.014-2.226 1.821-4.025 4.049-4.025 0.022 0 0.043 0 0.065 0.001l-0.003-0c0.013-0 0.028-0 0.044-0 1.157 0 2.203 0.471 2.959 1.231l0 0c0.975-0.192 1.842-0.538 2.619-1.016l-0.034 0.019c-0.326 0.953-0.959 1.729-1.779 2.23l-0.018 0.010c0.873-0.11 1.667-0.34 2.403-0.673l-0.052 0.021c-0.554 0.837-1.228 1.542-2.008 2.113l-0.023 0.016h0.025z"></path>
</symbol>
<symbol id="icon-upload" viewBox="0 0 32 32">
<title>upload</title>
<path fill="#ef6c00" style="fill: var(--color10, #ef6c00)" d="M26.827 18.933c-0.040 0.014-0.086 0.022-0.133 0.022s-0.094-0.008-0.136-0.023l0.003 0.001c-0.080 0-0.147 0-0.187 0.147s-0.093 0.16-0.12 0.16c-0.027 0 0 0.080 0 0.24v6.6c-0.015 1.8-1.478 3.254-3.28 3.254-0.023 0-0.047-0-0.070-0.001l0.003 0h-14.36c-0.015 0-0.032 0-0.049 0-0.886 0-1.687-0.368-2.257-0.959l-0.001-0.001c-0.561-0.566-0.907-1.345-0.907-2.205 0-0.017 0-0.034 0-0.051l-0 0.003v-6.533c0.001-0.010 0.001-0.023 0.001-0.035 0-0.144-0.051-0.276-0.135-0.379l0.001 0.001c-0.102-0.109-0.241-0.183-0.397-0.2l-0.003-0c-0.137-0.031-0.302-0.054-0.469-0.066l-0.011-0.001h-1c-0.002-0-0.004-0-0.006-0-0.177 0-0.337 0.077-0.447 0.199l-0.001 0.001c-0.123 0.113-0.2 0.274-0.2 0.453 0 0 0 0 0 0v0 6.533c-0 0.024-0.001 0.053-0.001 0.082 0 1.598 0.659 3.043 1.719 4.077l0.001 0.001c1.037 1.078 2.492 1.747 4.104 1.747 0.020 0 0.040-0 0.059-0l-0.003 0h14.36c0.004 0 0.009 0 0.013 0 3.24 0 5.867-2.627 5.867-5.867 0-0.005 0-0.009-0-0.014v0.001-6.533c0.001-0.010 0.001-0.023 0.001-0.035 0-0.144-0.051-0.276-0.135-0.379l0.001 0.001c-0.098-0.114-0.239-0.19-0.398-0.2l-0.002-0c-0.137-0.031-0.302-0.054-0.469-0.066l-0.011-0.001h-0.947v0.027z"></path>
<path fill="#ef6c00" style="fill: var(--color10, #ef6c00)" d="M14.813 0.387l-11.107 11.107c-0.228 0.239-0.368 0.563-0.368 0.92s0.14 0.681 0.369 0.921l-0.001-0.001c0.225 0.246 0.548 0.4 0.906 0.4 0.005 0 0.010-0 0.014-0h5.879v9.133c0 0.736 0.597 1.333 1.333 1.333v0h7.827c0.736 0 1.333-0.597 1.333-1.333v0-9.147h5.88c0.004 0 0.009 0 0.014 0 0.359 0 0.681-0.154 0.905-0.399l0.001-0.001c0.224-0.238 0.362-0.56 0.362-0.913s-0.138-0.675-0.363-0.914l0.001 0.001-11.16-11.107c-0.238-0.224-0.56-0.362-0.913-0.362s-0.675 0.138-0.914 0.363l0.001-0.001z"></path>
</symbol>
</defs>
</svg>
