<?xml version="1.0" standalone="no"?>
<!DOCTYPE svg PUBLIC "-//W3C//DTD SVG 20010904//EN"
 "http://www.w3.org/TR/2001/REC-SVG-20010904/DTD/svg10.dtd">
<svg version="1.0" xmlns="http://www.w3.org/2000/svg"
 width="1025.000000pt" height="1025.000000pt" viewBox="0 0 1025.000000 1025.000000"
 preserveAspectRatio="xMidYMid meet">
<metadata>
Created by potrace 1.11, written by Peter Selinger 2001-2013
</metadata>
<g transform="translate(0.000000,1025.000000) scale(0.100000,-0.100000)"
fill="#000000" stroke="none">
<path d="M44 10183 c679 -1049 2659 -4078 2666 -4078 5 0 130 186 279 413
l270 412 -822 1258 -823 1257 1758 3 c967 1 2550 1 3517 0 l1759 -3 -1749
-2675 c-963 -1471 -1759 -2686 -1769 -2700 -28 -37 -541 -822 -547 -836 -6
-16 538 -847 548 -837 6 6 4794 7351 5065 7771 l54 82 -5125 0 -5125 0 44 -67z"/>
<path d="M4632 7108 c-270 -414 -1422 -2182 -2560 -3928 l-2069 -3175 2564 -3
c1411 -1 3716 -1 5122 0 l2558 3 -1349 2070 c-742 1139 -1353 2070 -1358 2070
-5 0 -131 -186 -279 -413 l-270 -412 822 -1258 823 -1257 -1758 -3 c-967 -1
-2550 -1 -3517 0 l-1759 3 1749 2675 c963 1471 1758 2686 1769 2700 28 37 541
822 547 836 3 9 -507 807 -537 837 -4 5 -228 -330 -498 -745z"/>
</g>
</svg>
